<svg width="95" height="104" viewBox="0 0 95 104" fill="none" xmlns="http://www.w3.org/2000/svg">
<mask id="mask0_34_148" style="mask-type:alpha" maskUnits="userSpaceOnUse" x="0" y="0" width="95" height="104">
<path fill-rule="evenodd" clip-rule="evenodd" d="M68.7407 52C68.7407 58.6662 68.7192 61.5007 68.1218 63.7647C66.4185 70.2194 61.4058 75.2607 54.9879 76.9737C52.7368 77.5746 49.9184 77.5962 43.2901 77.5962H2.04245C1.46672 77.5962 1 78.063 1 78.6387V80.1561C1 80.1595 1.00275 80.1623 1.00614 80.1623V80.1623C10.0874 93.926 25.6351 103 43.2901 103C53.5544 103 63.1064 99.933 71.0895 94.6605L71.2922 94.5259C71.4093 94.4477 71.5261 94.3691 71.6425 94.29C85.1314 85.1249 94 69.6041 94 52C94 23.8335 71.2964 1 43.2901 1C25.6351 1 10.0874 10.074 1.00614 23.8377V23.8377C1.00275 23.8377 1 23.8405 1 23.8439V25.3613C1 25.9371 1.46672 26.4038 2.04245 26.4038H43.2901C49.9184 26.4038 52.7368 26.4254 54.9879 27.0263C61.4058 28.7393 66.4185 33.7806 68.1218 40.2353C68.7192 42.4993 68.7407 45.3338 68.7407 52ZM68.262 93.422C60.9806 97.8716 52.4329 100.434 43.2901 100.434C27.137 100.434 12.8413 92.4357 4.10495 80.1623L68.7407 80.1623V93.1256C68.5818 93.2253 68.4222 93.3241 68.262 93.422ZM71.2922 91.4094C75.3326 88.5003 78.907 84.9785 81.8812 80.9788C82.082 80.7088 82.28 80.4366 82.4753 80.1623H71.2922V91.4094ZM84.1818 77.5962C88.7874 70.1697 91.4486 61.3974 91.4486 52C91.4486 42.8049 88.9008 34.2083 84.4765 26.8852C84.3792 26.7241 84.2809 26.5636 84.1818 26.4038H71.2922V77.5962H84.1818ZM68.7407 34.904V26.4038H60.2889C63.8618 28.3554 66.8002 31.3107 68.7407 34.904ZM68.7407 69.096V77.5962H60.2889C63.8618 75.6446 66.8002 72.6893 68.7407 69.096ZM82.4753 23.8377C79.5828 19.7742 76.081 16.1793 72.1041 13.1882C71.8356 12.9862 71.565 12.787 71.2922 12.5906V23.8377H82.4753ZM68.7407 10.8744V23.8377H4.10495C12.8413 11.5643 27.137 3.56604 43.2901 3.56604C52.634 3.56604 61.3564 6.24236 68.7407 10.8744Z" fill="white" stroke="white" stroke-width="2"/>
</mask>
<g mask="url(#mask0_34_148)">
<rect x="-8" y="-11" width="115" height="170" fill="url(#paint0_linear_34_148)"/>
</g>
<defs>
<linearGradient id="paint0_linear_34_148" x1="49.5" y1="-11" x2="49.5" y2="159" gradientUnits="userSpaceOnUse">
<stop stop-color="white"/>
<stop offset="1" stop-color="#DE9425" stop-opacity="0.38"/>
</linearGradient>
</defs>
</svg>
